G:\RME\Thesis\opencap-processing\Data\312d5121-d82d-4833-a1b5-4f6827ad0820\OpenSimData\Dynamics\run\GRF_resultant_run_1.mot
version=1
nRows=25
nColumns=19
inDegrees=yes
endheader 
time	ground_force_right_vx	ground_force_right_vy	ground_force_right_vz	ground_force_right_px	ground_force_right_py	ground_force_right_pz	ground_torque_right_x	ground_torque_right_y	ground_torque_right_z	ground_force_left_vx	ground_force_left_vy	ground_force_left_vz	ground_force_left_px	ground_force_left_py	ground_force_left_pz	ground_torque_left_x	ground_torque_left_y	ground_torque_left_z	
          3.34000000	        -87.98573294	       1494.34371015	       -274.62455264	          1.70237918	          0.00000000	          0.23338667	          0.00000000	        -11.33857662	          0.00000000	       -141.29124978	        111.89378198	        -91.42083705	          1.57065820	          0.00000000	         -0.10141642	          0.00000000	          0.01866549	          0.00000000	
          3.36000000	        -69.12866558	       1588.04656797	       -261.64757079	          1.69263402	          0.00000000	          0.23583520	          0.00000000	         -8.72311063	          0.00000000	       -142.14921926	        145.28149558	        -73.34866783	          1.60987055	          0.00000000	         -0.05426185	          0.00000000	         -0.04155092	          0.00000000	
          3.38000000	        -50.48399879	       1545.80635425	       -257.95643954	          1.68269719	          0.00000000	          0.23717217	          0.00000000	         -6.70052910	          0.00000000	        -86.06662691	        547.38676758	         14.84011781	          1.64170455	          0.00000000	         -0.05472749	          0.00000000	         -0.30771319	          0.00000000	
          3.40000000	       -140.80670608	       1541.75875125	       -253.07313352	          1.69039451	          0.00000000	          0.23580461	          0.00000000	         -3.03510412	          0.00000000	         -5.79075239	        791.18327073	         19.67053898	          1.64341108	          0.00000000	         -0.05302389	          0.00000000	         -0.04461668	          0.00000000	
          3.42000000	       -130.13043180	       1241.47160075	       -171.22299594	          1.73089775	          0.00000000	          0.23015318	          0.00000000	         -2.48632895	          0.00000000	          6.92833285	       1063.35423792	         -4.81674452	          1.64114629	          0.00000000	         -0.05140292	          0.00000000	          3.04500822	          0.00000000	
          3.44000000	       -150.40722387	        905.94074201	        -47.89990647	          1.77376565	          0.00000000	          0.21845017	          0.00000000	         -2.39205741	          0.00000000	        -25.72196707	       1343.24603451	        -52.32906449	          1.64021169	          0.00000000	         -0.05320396	          0.00000000	         12.71857463	          0.00000000	
          3.46000000	         -0.04571308	         -0.04857698	          0.00400579	          0.00000000	          0.00000000	          0.00000000	          0.00000000	         -0.01728618	          0.00000000	       -134.27582793	       1211.06657113	          7.33534238	          1.64555693	          0.00000000	         -0.05707984	          0.00000000	         12.02230130	          0.00000000	
          3.48000000	         -0.00000000	         -0.00000000	         -0.00000000	          0.00000000	          0.00000000	          0.00000000	          0.00000000	          0.00000000	          0.00000000	         -0.00000922	         -0.00001015	         -0.00000612	          0.00000000	          0.00000000	          0.00000000	          0.00000000	          0.00001119	          0.00000000	
          3.50000000	         -0.00000000	         -0.00000000	         -0.00000000	          0.00000000	          0.00000000	          0.00000000	          0.00000000	          0.00000000	          0.00000000	         -0.00000000	         -0.00000000	         -0.00000000	          0.00000000	          0.00000000	          0.00000000	          0.00000000	          0.00000000	          0.00000000	
          3.52000000	         -0.00000000	         -0.00000000	         -0.00000000	          0.00000000	          0.00000000	          0.00000000	          0.00000000	          0.00000000	          0.00000000	         -0.00000000	         -0.00000000	         -0.00000000	          0.00000000	          0.00000000	          0.00000000	          0.00000000	          0.00000000	          0.00000000	
          3.54000000	         -0.00000000	         -0.00000000	         -0.00000000	          0.00000000	          0.00000000	          0.00000000	          0.00000000	          0.00000000	          0.00000000	         -0.00000000	         -0.00000000	         -0.00000000	          0.00000000	          0.00000000	          0.00000000	          0.00000000	          0.00000000	          0.00000000	
          3.56000000	         -0.00000000	         -0.00000000	         -0.00000000	          0.00000000	          0.00000000	          0.00000000	          0.00000000	          0.00000000	          0.00000000	          0.00000000	         -0.00000000	         -0.00000000	          0.00000000	          0.00000000	          0.00000000	          0.00000000	          0.00000000	          0.00000000	
          3.58000000	         -0.00000000	         -0.00000000	         -0.00000000	          0.00000000	          0.00000000	          0.00000000	          0.00000000	          0.00000000	          0.00000000	          0.00000000	         -0.00000000	         -0.00000000	          0.00000000	          0.00000000	          0.00000000	          0.00000000	          0.00000000	          0.00000000	
          3.60000000	         -0.00000000	         -0.00000000	         -0.00000000	          0.00000000	          0.00000000	          0.00000000	          0.00000000	          0.00000000	          0.00000000	         -0.00000000	         -0.00000000	         -0.00000000	          0.00000000	          0.00000000	          0.00000000	          0.00000000	          0.00000000	          0.00000000	
          3.62000000	         -0.00000000	         -0.00000000	         -0.00000000	          0.00000000	          0.00000000	          0.00000000	          0.00000000	          0.00000000	          0.00000000	         -0.00000000	         -0.00000000	         -0.00000000	          0.00000000	          0.00000000	          0.00000000	          0.00000000	          0.00000000	          0.00000000	
          3.64000000	         -0.00000000	         -0.00000000	         -0.00000000	          0.00000000	          0.00000000	          0.00000000	          0.00000000	          0.00000000	          0.00000000	         -0.00000000	         -0.00000000	         -0.00000000	          0.00000000	          0.00000000	          0.00000000	          0.00000000	          0.00000000	          0.00000000	
          3.66000000	         -0.00000000	         -0.00000000	         -0.00000000	          0.00000000	          0.00000000	          0.00000000	          0.00000000	          0.00000000	          0.00000000	         -0.00000000	         -0.00000000	         -0.00000000	          0.00000000	          0.00000000	          0.00000000	          0.00000000	          0.00000000	          0.00000000	
          3.68000000	         -0.00000000	         -0.00000000	          0.00000000	          0.00000000	          0.00000000	          0.00000000	          0.00000000	          0.00000000	          0.00000000	         -0.00000000	         -0.00000000	         -0.00000000	          0.00000000	          0.00000000	          0.00000000	          0.00000000	          0.00000000	          0.00000000	
          3.70000000	         -0.00000000	         -0.00000000	         -0.00000000	          0.00000000	          0.00000000	          0.00000000	          0.00000000	          0.00000000	          0.00000000	         -0.00000000	         -0.00000000	         -0.00000000	          0.00000000	          0.00000000	          0.00000000	          0.00000000	          0.00000000	          0.00000000	
          3.72000000	         -0.00000000	         -0.00000000	          0.00000000	          0.00000000	          0.00000000	          0.00000000	          0.00000000	          0.00000000	          0.00000000	         -0.00000000	         -0.00000000	          0.00000000	          0.00000000	          0.00000000	          0.00000000	          0.00000000	          0.00000000	          0.00000000	
          3.74000000	         -0.00000000	          0.00000000	          0.00000000	          0.00000000	          0.00000000	          0.00000000	          0.00000000	          0.00000000	          0.00000000	         -0.00000000	         -0.00000000	          0.00000000	          0.00000000	          0.00000000	          0.00000000	          0.00000000	          0.00000000	          0.00000000	
          3.76000000	         -0.00000000	          0.00000000	          0.00000000	          0.00000000	          0.00000000	          0.00000000	          0.00000000	          0.00000000	          0.00000000	         -0.00000000	         -0.00000000	          0.00000000	          0.00000000	          0.00000000	          0.00000000	          0.00000000	          0.00000000	          0.00000000	
          3.78000000	         -0.00000000	          0.00000000	          0.00000000	          0.00000000	          0.00000000	          0.00000000	          0.00000000	          0.00000000	          0.00000000	         -0.00000000	         -0.00000000	          0.00000000	          0.00000000	          0.00000000	          0.00000000	          0.00000000	          0.00000000	          0.00000000	
          3.80000000	         -0.00000000	         -0.00000000	          0.00000000	          0.00000000	          0.00000000	          0.00000000	          0.00000000	          0.00000000	          0.00000000	         -0.00000000	         -0.00000000	          0.00000000	          0.00000000	          0.00000000	          0.00000000	          0.00000000	          0.00000000	          0.00000000	
          3.82000000	         -0.00000000	         -0.00000000	          0.00000000	          0.00000000	          0.00000000	          0.00000000	          0.00000000	          0.00000000	          0.00000000	         -0.00000000	         -0.00000000	          0.00000000	          0.00000000	          0.00000000	          0.00000000	          0.00000000	          0.00000000	          0.00000000	
